PathFileType	4	(X/Y/Z)	53_1_34_p1_0-296_filt_butterworth.trc
DataRate	CameraRate	NumFrames	NumMarkers	Units	OrigDataRate	OrigDataStartFrame	OrigNumFrames
60.0	60.0	4	27	m	60.0	0	296
Frame#	Time	RHip			RKnee			RAnkle			RBigToe			RSmallToe			RHeel			LHip			LKnee			LAnkle			LBigToe			LSmallToe			LHeel			Neck			Head			Nose			RShoulder			RElbow			RWrist			RThumb			RIndex			RPinky			LShoulder			LElbow			LWrist			LThumb			LIndex			LPinky			
		X1	Y1	Z1	X2	Y2	Z2	X3	Y3	Z3	X4	Y4	Z4	X5	Y5	Z5	X6	Y6	Z6	X7	Y7	Z7	X8	Y8	Z8	X9	Y9	Z9	X10	Y10	Z10	X11	Y11	Z11	X12	Y12	Z12	X13	Y13	Z13	X14	Y14	Z14	X15	Y15	Z15	X16	Y16	Z16	X17	Y17	Z17	X18	Y18	Z18	X19	Y19	Z19	X20	Y20	Z20	X21	Y21	Z21	X22	Y22	Z22	X23	Y23	Z23	X24	Y24	Z24	X25	Y25	Z25	X26	Y26	Z26	X27	Y27	Z27	
0	0.0	0.37866886091956664	0.8155089996827448	0.7444938781447553	0.39710529468585654	0.34568636369067424	0.8415336506988401	0.3500628564049813	-0.05042161158948619	0.8695800641875756	0.3171061353277273	-0.06710210010281656	0.7323325203073606	0.36486066102014714	-0.07800643522508265	0.7425521771431204	0.32314998539792483	-0.14693883810870037	0.9618323047348832	0.18366903738864798	0.7970328114397233	0.7818702656495559	0.15566764416061613	0.351584558556147	0.8607683277240032	0.15218439369559184	-0.07046847389327765	0.8963531975783829	0.16454306403027003	-0.03984300101702619	0.7163254589876131	0.10967904278488465	-0.05396095022243891	0.7592616189303242	0.1692182723822155	-0.1107377146440646	0.9203057051417923	0.29595406116743783	1.3255201424717409	0.7546970029275002	0.30736139779317856	1.5781610339851948	0.6620664237900895	0.2981837355941595	1.4414916605230204	0.6012194091441873	0.43265259719676025	1.2685528966496031	0.7403671889878987	0.45643404157152434	1.0029115517614065	0.7194428834523674	0.3218947046975487	0.8682537226884084	0.5439788418364818	0.2551782411144348	0.8441108342741068	0.4459874873859987	0.2516516963734613	0.833120052255446	0.4574429188471439	0.25574865917573547	0.8243745809564406	0.4696547911088569	0.1511436708833794	1.2700980309901466	0.7859969548064124	0.11307554105023743	0.9980446138986121	0.7414950665478689	0.20412526345398818	0.8981806451316877	0.5518157812695399	0.2582133872865998	0.852468612904013	0.45581244633118917	0.2632942484924206	0.8407102876868934	0.45620517154527707	0.24873794798358845	0.8164978703187469	0.5111939820698301	
1	0.0166666666666666	0.3798866490766498	0.8139999891562031	0.744832484914507	0.3971115383452937	0.3418498225549331	0.8461527806592353	0.35002054435039937	-0.05050504965096768	0.8696283258027743	0.3173962228570973	-0.06474703165088709	0.728235207154274	0.36539754703051214	-0.07570326744883907	0.7429269407081656	0.32346971565947974	-0.14910154033964665	0.9638614733070536	0.1824911815100613	0.7961550573147432	0.7830790301664347	0.1555742240967064	0.35041472390867134	0.8607211229691372	0.15218306379390403	-0.07041510483883039	0.8963399042663702	0.1664157159976549	-0.046355942945828454	0.7236072711446092	0.10998964263256977	-0.056574524919869584	0.7602090463037172	0.16940226757563212	-0.11006316923622947	0.9204282503707201	0.2959607441947688	1.3254933606739996	0.7546172079813673	0.30732139538582803	1.5777613885207706	0.661842735951147	0.2981925942378099	1.4418076798490111	0.601183618979017	0.43239355826841136	1.268562299549567	0.7402894945532261	0.45648512296817123	1.0010022570822967	0.7194566450051512	0.3217125483728644	0.86733064437044	0.5439056061428995	0.2522388545755783	0.8425389683909947	0.4524695543613735	0.24784246298920043	0.829789676161409	0.46854791538715923	0.2517543010242036	0.816560948484148	0.48261644423015115	0.1511493045447696	1.2698914719740926	0.7860736305204039	0.11210498932703644	0.9985907157118753	0.740804768788197	0.2047634958000303	0.8974391275703912	0.5523737901337057	0.25630828217944024	0.8508168072737761	0.46110475763491915	0.25822095821476176	0.8373770425420972	0.45901050070897764	0.2455006324648321	0.8131702117537426	0.5236130121423572	
2	0.0333333333333333	0.3809155216939023	0.8127163391192103	0.7451282841535565	0.3971195270924534	0.33864434691647377	0.8500214953749577	0.3499870919597754	-0.05057005256967578	0.8696706427369758	0.3176920459209822	-0.06328575926097012	0.7256669995279689	0.3657558546585265	-0.07417272132663671	0.7430168769062964	0.3237882756869733	-0.15090889194476778	0.9655803156191656	0.18160961557872646	0.7954052204460343	0.7839956335616846	0.15547729607421362	0.3493895910517875	0.8606898748312117	0.15217004619360866	-0.07042740631776938	0.8963361043039801	0.1676428408580401	-0.050529561002244275	0.7283260328334351	0.11019738569253205	-0.05837976892604535	0.7608681314919744	0.16954383798064143	-0.10960255005746919	0.92052302998001	0.2959624352253213	1.325483984859244	0.754571728326131	0.30736615510396614	1.577210576937222	0.6617108346333148	0.2982031289572707	1.4423221784249434	0.6012121747649127	0.43232951447706647	1.268561371513052	0.7402626984250803	0.4569795386044132	0.9997397383481827	0.7195149579881553	0.32163056494435427	0.8665098744636099	0.543790416767246	0.2500590099096522	0.8403435771782085	0.4586282673533406	0.2446547637645457	0.8257705522093663	0.4784882657320868	0.2493143151981676	0.8094874653396325	0.4943848081207405	0.15115243068661596	1.2698730459691088	0.7861087995089039	0.11124359942845553	0.9989158316319489	0.7404229922982969	0.20500735719199994	0.8956741356517854	0.5527824808170336	0.2547701259480642	0.8489411244568317	0.4655276986663096	0.2553046753399492	0.8342694769153438	0.46144420809349584	0.24339829903130802	0.8097681649141345	0.5319556266787896	
3	0.05	0.38176960852944963	0.811643007614908	0.7453840820697177	0.39712932588263367	0.3360228816126078	0.8531971600349556	0.3499617008627317	-0.050618405729942875	0.8697076058266308	0.31797940126400537	-0.06254349988089443	0.7243319810302047	0.36596927340811364	-0.07328018407718032	0.7429027295944924	0.3241012790954764	-0.15238788776148304	0.9670112057839961	0.18099460317966073	0.7947739264417437	0.7846538452865256	0.15537777904341163	0.3484996960317671	0.8606726747887927	0.1521467515927525	-0.07049795522223194	0.8963407175924111	0.16833744219823354	-0.05279534702082868	0.7309363679932193	0.11032178139031548	-0.05951323770211211	0.7612856791686538	0.1696465326107662	-0.10933627181430931	0.9205923093627835	0.2959604973819639	1.3254879275661688	0.7545534886243775	0.3074589912396773	1.5765724729744752	0.6616495082399501	0.2982158020266637	1.4429629100596646	0.6012879877012276	0.4324101444140077	1.2685529989524864	0.7402752426854509	0.457777737786205	0.9990050287553494	0.7196027749764438	0.32162358807623886	0.8657706499265868	0.5436482299950107	0.24857910290326207	0.8376904190631544	0.46436033099315943	0.24210467020862064	0.8213112664768899	0.48718704933145573	0.24815472188483584	0.8031298327260082	0.504873550837934	0.15115459878825827	1.2699670534568046	0.7861179266817568	0.1105021606814379	0.9990254835649367	0.7402841263977609	0.204958075764786	0.8931638222845312	0.5530815762117814	0.25359465462103586	0.8469191239245757	0.46925988192683193	0.2541453540390212	0.8313498015441732	0.4636484774902182	0.2422215383009188	0.8063903458142807	0.5369536276803463	
